<?xml version="1.0" encoding="utf-8"?>
<svg xmlns="http://www.w3.org/2000/svg" width="48" height="48">
    <defs>
        <linearGradient x1="0" y1="0" x2="0" y2="0" gradientUnits="userSpaceOnUse" id="color-1">
            <stop offset="0" stop-color="#000000" stop-opacity="0.3" />
            <stop offset="1" stop-color="#000000" stop-opacity="0" />
        </linearGradient>
        <filter id="dropshadow-base">
            <feColorMatrix type="matrix" values="0 0 0 0 0  0 0 0 0 0  0 0 0 0 0  0 0 0 .8 0" />
            <feOffset dx="0" dy="1" />
            <feGaussianBlur stdDeviation="1" />
            <feComposite in="SourceGraphic" />
        </filter>
        <filter id="dropshadow-banner" x="-10%" y="-10%" width="120%" height="130%">
            <feColorMatrix type="matrix" values="0 0 0 0 0  0 0 0 0 0  0 0 0 0 0  0 0 0 .4 0" />
            <feOffset dx="0" dy="1" />
            <feGaussianBlur stdDeviation="0.5" />
            <feComposite in="SourceGraphic" />
        </filter>
    </defs>
    <g fill-rule="nonzero" stroke-linecap="butt" stroke-linejoin="miter" stroke-miterlimit="10">
        <path d="M2,24c0,-12.15026 9.84974,-22 22,-22c12.15026,0 22,9.84974 22,22c0,12.15026 -9.84974,22 -22,22c-12.15026,0 -22,-9.84974 -22,-22z" id="base 1 5" fill="#429103" stroke-width="1" />
        <path d="" fill="url(#color-1)" stroke-width="1" />
        <path d="M24.8239,13.26843c0.20758,0.02442 0.696,0.07326 1.09895,0.12211c0.78148,0.07326 1.16001,0.232 1.96591,0.78148l0.50063,0.3419l1.2699,-0.29305c0.696,-0.15874 1.73391,-0.40295 2.29559,-0.53727c0.76927,-0.18316 1.07453,-0.21979 1.19664,-0.1099c0.08547,0.07326 0.41516,0.53727 0.72043,1.02569c0.53727,0.86695 0.54948,0.91579 0.47621,1.57517c-0.09768,0.75706 -0.12211,0.74485 0.90358,0.54948c0.61053,-0.1099 0.68379,-0.09768 1.58738,0.35411c0.52506,0.26863 1.11116,0.62274 1.30653,0.78148c0.19537,0.17095 1.00127,0.61053 1.77054,0.97685c1.30653,0.61053 1.69727,0.86695 1.53854,1.01348c-0.02442,0.02442 -0.70821,-0.24421 -1.5019,-0.59832l-1.45306,-0.65937l-0.03663,0.85474c-0.02442,0.47621 -0.01221,0.91579 0.01221,1.00127c0.03663,0.07326 1.31874,0.67158 2.85728,1.31874c1.53854,0.65937 2.90612,1.2699 3.04044,1.35538c0.59832,0.45179 -0.15874,0.24421 -2.86949,-0.78148c-1.62401,-0.59832 -3.00381,-1.09895 -3.06486,-1.09895c-0.04884,0 -0.43958,0.40295 -0.86695,0.87916c-0.41516,0.48842 -0.83032,0.90358 -0.92801,0.92801c-0.13432,0.03663 -0.15874,0.24421 -0.13432,0.90358l0.03663,0.86695l0.96464,0.58611c0.8059,0.47621 1.39201,0.696 3.41897,1.2699c1.35538,0.37853 2.5398,0.74485 2.63749,0.79369c0.15874,0.09768 0.15874,0.12211 -0.02442,0.18316c-0.17095,0.07326 -4.7255,-0.90358 -5.32382,-1.13559c-0.15874,-0.06105 -0.17095,0.06105 -0.1099,0.78148c0.04884,0.464 0.08547,1.28211 0.08547,1.81938c0,0.53727 0.04884,1.05011 0.1099,1.13559c0.04884,0.09768 0.73264,0.25642 1.6118,0.40295c1.99033,0.30526 2.06359,0.32969 2.06359,0.54948c0,0.17095 -0.09768,0.18316 -0.5739,0.1099c-0.32969,-0.04884 -1.16001,-0.15874 -1.86822,-0.24421c-1.23327,-0.15874 -1.29432,-0.15874 -1.53854,0.07326c-0.35411,0.32969 -0.40295,0.68379 -0.30526,2.1857c0.04884,0.70821 0.07326,1.31874 0.04884,1.36759c-0.02442,0.04884 -0.20758,0.02442 -0.40295,-0.04884c-0.35411,-0.12211 -0.36632,-0.14653 -0.35411,-0.86695c0.01221,-1.48969 0.15874,-2.38107 0.464,-2.69854c0.28084,-0.30526 0.29305,-0.3419 0.20758,-1.86822c-0.03663,-0.85474 -0.1099,-1.99033 -0.15874,-2.50317l-0.07326,-0.95243l-1.6118,-0.92801l-0.07326,-2.39328l0.35411,0.07326c0.30526,0.07326 0.42737,-0.01221 1.17222,-0.78148l0.84253,-0.86695l-0.08547,-0.92801c-0.03663,-0.51285 -0.07326,-1.11116 -0.07326,-1.33096c0,-0.36632 -0.06105,-0.42737 -1.02569,-0.95243c-1.16001,-0.63495 -0.61053,-0.63495 -4.2615,0.04884c-2.22233,0.42737 -2.44212,0.43958 -2.66191,0.17095c-0.31748,-0.39074 -0.90358,-0.54948 -2.95496,-0.81811l-2.11243,-0.28084l-2.1857,0.28084c-1.20885,0.14653 -2.25896,0.26863 -2.34443,0.26863c-0.07326,0.01221 -0.30526,0.15874 -0.51285,0.32969c-0.52506,0.43958 -1.0379,0.47621 -2.28338,0.19537c-0.59832,-0.14653 -1.75833,-0.36632 -2.57644,-0.51285l-1.48969,-0.24421l-1.90485,1.05011l-0.07326,2.78402l0.76927,0.76927c0.47621,0.48842 0.86695,0.76927 1.01348,0.75706c0.56169,-0.03663 0.56169,-0.03663 0.52506,1.19664l-0.03663,1.19664l-0.81811,0.464l-0.8059,0.464l-0.07326,1.24548c-0.21979,3.96844 -0.21979,3.6876 0.03663,3.9196c0.39074,0.35411 0.59832,1.13559 0.65937,2.36886c0.04884,1.08674 0.04884,1.1478 -0.232,1.33096c-0.15874,0.09768 -0.37853,0.14653 -0.48842,0.1099c-0.17095,-0.06105 -0.18316,-0.25642 -0.1099,-1.57517l0.08547,-1.48969l-0.35411,-0.40295l-0.3419,-0.40295l-3.05265,0.43958c-3.3457,0.464 -3.48002,0.47621 -3.48002,0.31748c0,-0.17095 0.19537,-0.21979 3.41897,-0.79369c1.6118,-0.29305 2.96718,-0.54948 2.9916,-0.58611c0.07326,-0.07326 0.24421,-3.76086 0.17095,-3.76086c-0.02442,0.01221 -1.52632,0.39074 -3.3457,0.84253c-1.99033,0.50063 -3.3457,0.79369 -3.41897,0.72043c-0.19537,-0.17095 0.02442,-0.25642 3.16255,-1.19664c3.16255,-0.94022 3.72423,-1.1478 4.61561,-1.73391l0.58611,-0.36632v-0.84253c0,-0.464 -0.04884,-0.84253 -0.12211,-0.84253c-0.1099,0 -0.81811,-0.72043 -1.48969,-1.51411l-0.30526,-0.36632l-0.65937,0.24421c-0.36632,0.13432 -2.05138,0.79369 -3.74865,1.44085c-2.23454,0.86695 -3.13812,1.16001 -3.2236,1.07453c-0.09768,-0.09768 -0.07326,-0.15874 0.09768,-0.21979c0.12211,-0.04884 1.83159,-0.79369 3.77307,-1.64843l3.54107,-1.56296l0.03663,-0.92801c0.02442,-0.50063 -0.01221,-0.91579 -0.06105,-0.91579c-0.04884,0 -1.2699,0.54948 -2.72296,1.20885c-2.89391,1.33096 -3.17476,1.44085 -3.17476,1.23327c0,-0.07326 1.33096,-0.79369 2.96718,-1.58738c1.62401,-0.79369 3.04044,-1.52632 3.12591,-1.62401c0.08547,-0.1099 0.67158,-0.47621 1.30653,-0.81811c1.08674,-0.58611 1.16001,-0.61053 1.66064,-0.48842c1.05011,0.24421 1.09895,0.21979 1.05011,-0.58611c-0.02442,-0.63495 0.01221,-0.79369 0.39074,-1.40422c0.232,-0.37853 0.52506,-0.83032 0.67158,-1.00127l0.24421,-0.31748l2.33222,0.5739l2.32001,0.5739l0.67158,-0.43958c0.61053,-0.41516 1.25769,-0.62274 2.3078,-0.73264c0.232,-0.03663 0.59832,-0.03663 0.79369,0zM23.72494,13.79349c-0.52506,0.04884 -1.06232,0.18316 -1.40422,0.36632c-0.72043,0.37853 -0.47621,0.42737 1.16001,0.19537c0.72043,-0.09768 1.36759,-0.15874 1.44085,-0.12211c0.15874,0.04884 2.72296,0.41516 2.94275,0.41516c0.07326,0 -0.1099,-0.17095 -0.41516,-0.36632c-0.39074,-0.24421 -0.81811,-0.40295 -1.40422,-0.48842c-0.92801,-0.12211 -1.0379,-0.12211 -2.32001,0zM32.49215,14.17202c-0.04884,0 -0.84253,0.18316 -1.75833,0.39074l-1.67285,0.39074l0.72043,1.22106c0.39074,0.67158 0.75706,1.22106 0.8059,1.22106c0.21979,0 1.69727,-0.3419 1.75833,-0.41516c0.04884,-0.03663 0.12211,-0.696 0.15874,-1.45306c0.04884,-0.74485 0.03663,-1.36759 -0.01221,-1.35538zM17.09459,14.28191c-0.17095,0 -0.18316,0.25642 -0.07326,1.66064l0.08547,0.98906l0.86695,0.20758c0.47621,0.1099 0.90358,0.19537 0.94022,0.19537c0.09768,0 1.33096,-2.14907 1.33096,-2.29559c0,-0.06105 -0.67158,-0.24421 -1.5019,-0.42737c-0.81811,-0.18316 -1.56296,-0.32969 -1.64843,-0.32969zM25.34895,15.05118c0.5739,0.13432 0.63495,0.40295 0.07326,0.36632c-0.19537,-0.01221 -1.0379,0.06105 -1.88043,0.15874c-1.40422,0.17095 -1.57517,0.21979 -2.17349,0.62274c-0.35411,0.24421 -0.62274,0.45179 -0.59832,0.47621c0.02442,0.02442 0.78148,-0.06105 1.68506,-0.19537c2.08801,-0.31748 2.23454,-0.31748 4.50571,0.04884c1.0379,0.15874 1.90485,0.28084 1.92927,0.25642c0.01221,-0.01221 -0.19537,-0.18316 -0.464,-0.36632c-0.58611,-0.40295 -0.85474,-0.79369 -0.54948,-0.79369c0.1099,0 0.37853,0.13432 0.58611,0.29305c0.21979,0.15874 0.52506,0.32969 0.68379,0.37853l0.28084,0.08547l-0.28084,-0.37853c-0.32969,-0.45179 -0.21979,-0.41516 -2.35665,-0.8059c-1.70948,-0.30526 -2.40549,-0.37853 -1.44085,-0.14653zM24.88495,18.01836c0.36632,0.02442 2.34443,0.28084 4.39582,0.54948l3.72423,0.50063l0.85474,0.54948c1.39201,0.90358 1.40422,0.91579 1.40422,1.94149c0,0.48842 -0.04884,0.91579 -0.1099,0.95243c-0.17095,0.1099 -0.3419,-0.19537 -0.43958,-0.78148c-0.13432,-0.87916 -0.17095,-0.95243 -0.73264,-1.33096c-0.29305,-0.19537 -0.68379,-0.47621 -0.87916,-0.61053c-0.28084,-0.19537 -0.91579,-0.30526 -3.57771,-0.62274c-1.78275,-0.20758 -3.50444,-0.42737 -3.84634,-0.47621c-0.45179,-0.08547 -1.19664,-0.03663 -2.93054,0.18316c-1.2699,0.17095 -3.05265,0.37853 -3.95623,0.47621c-1.79496,0.19537 -2.46654,0.42737 -3.3457,1.18443c-0.41516,0.35411 -0.47621,0.48842 -0.53727,1.09895c-0.07326,0.72043 -0.30526,1.09895 -0.53727,0.86695c-0.06105,-0.06105 -0.1099,-0.54948 -0.08547,-1.07453l0.03663,-0.95243l1.09895,-0.74485c1.08674,-0.74485 1.11116,-0.74485 2.38107,-0.90358c0.70821,-0.08547 2.44212,-0.31748 3.84634,-0.51285c1.47748,-0.20758 2.84507,-0.32969 3.23581,-0.29305zM24.39653,19.54468c0.1099,0 0.84253,0.07326 1.64843,0.17095c0.8059,0.09768 2.55202,0.29305 3.88297,0.42737c1.33096,0.13432 2.51538,0.29305 2.62528,0.35411c0.3419,0.19537 1.06232,0.98906 0.87916,0.98906c-0.08547,0 -0.32969,-0.12211 -0.53727,-0.28084c-0.54948,-0.41516 -0.62274,-0.42737 -2.79623,-0.63495c-1.08674,-0.09768 -2.66191,-0.25642 -3.50444,-0.3419c-1.48969,-0.17095 -1.67285,-0.15874 -5.44593,0.20758c-3.87076,0.39074 -3.90739,0.40295 -4.44466,0.76927c-1.29432,0.87916 -1.48969,0.76927 -0.36632,-0.20758l0.73264,-0.63495l2.58865,-0.28084c1.42864,-0.15874 3.04044,-0.3419 3.57771,-0.40295c0.53727,-0.06105 1.06232,-0.12211 1.16001,-0.13432zM29.59824,22.51186l3.56549,0.39074l0.70821,0.53727c0.39074,0.30526 0.91579,0.74485 1.17222,0.98906l0.464,0.43958v1.17222c0,0.68379 -0.04884,1.20885 -0.12211,1.24548c-0.07326,0.04884 -0.83032,-0.39074 -1.68506,-0.95243l-1.55075,-1.0379l-3.23581,-0.15874c-3.77307,-0.17095 -4.04171,-0.17095 -7.26531,0c-4.66445,0.25642 -4.10276,0.13432 -5.81224,1.31874c-0.81811,0.56169 -1.55075,1.00127 -1.62401,0.97685c-0.13432,-0.04884 -0.13432,-0.26863 -0.09768,-1.99033l0.02442,-0.75706l1.13559,-0.91579l1.1478,-0.91579l2.85728,-0.31748c1.57517,-0.17095 3.29686,-0.36632 3.83413,-0.42737c1.19664,-0.13432 1.97812,-0.08547 6.48383,0.40295zM25.19022,22.65838c-0.19537,-0.02442 -0.63495,0 -0.97685,0.04884c-0.32969,0.04884 -2.17349,0.25642 -4.09055,0.43958l-3.48002,0.35411l-1.06232,0.95243l-1.07453,0.96464v0.61053c0,0.58611 0.01221,0.61053 0.232,0.45179c0.13432,-0.09768 0.72043,-0.52506 1.30653,-0.95243l1.06232,-0.78148l3.80971,-0.3419c2.08801,-0.18316 3.94402,-0.30526 4.10276,-0.28084c0.15874,0.02442 1.63622,0.15874 3.28465,0.29305c4.57897,0.37853 4.09055,0.25642 5.49477,1.29432c0.67158,0.50063 1.25769,0.90358 1.28211,0.90358c0.03663,0 0.06105,-0.26863 0.06105,-0.58611c0,-0.62274 -0.07326,-0.72043 -1.70948,-2.1857l-0.42737,-0.37853l-3.72423,-0.37853c-2.05138,-0.20758 -3.88297,-0.40295 -4.09055,-0.42737zM28.79234,27.40831l3.96844,0.31748l2.80844,1.51411v1.19664c0.01221,0.65937 -0.02442,1.22106 -0.06105,1.24548c-0.03663,0.02442 -0.89137,-0.42737 -1.88043,-1.00127l-1.80717,-1.05011l-2.21012,-0.17095c-2.96718,-0.232 -5.56803,-0.24421 -8.08342,-0.06105c-3.69981,0.29305 -3.51665,0.24421 -5.43372,1.35538c-0.92801,0.54948 -1.74612,0.98906 -1.80717,0.98906c-0.07326,0 -0.15874,-0.08547 -0.19537,-0.19537c-0.09768,-0.24421 -0.09768,-1.92927 0,-2.17349c0.03663,-0.1099 0.70821,-0.52506 1.47748,-0.94022l1.41643,-0.75706l3.24802,-0.26863c4.22487,-0.35411 3.95623,-0.35411 8.55963,0zM24.70179,27.60368c-0.06105,0.01221 -1.63622,0.14653 -3.48002,0.29305l-3.35791,0.26863l-1.55075,0.72043l-1.56296,0.70821v0.64716c0,0.35411 0.02442,0.64716 0.06105,0.64716c0.02442,0 0.70821,-0.37853 1.5019,-0.84253l1.45306,-0.85474l3.2236,-0.30526c1.77054,-0.18316 3.39455,-0.32969 3.58992,-0.3419c0.42737,-0.01221 6.66699,0.59832 7.20425,0.70821c0.20758,0.04884 1.01348,0.464 1.80717,0.91579l1.44085,0.84253l-0.03663,-0.74485l-0.03663,-0.73264l-1.58738,-0.72043l-1.58738,-0.70821l-3.48002,-0.25642c-1.91706,-0.14653 -3.52886,-0.25642 -3.60213,-0.24421z" />
        <path d="M24.8239,13.26843c0.20758,0.02442 0.696,0.07326 1.09895,0.12211c0.78148,0.07326 1.16001,0.232 1.96591,0.78148l0.50063,0.3419l1.2699,-0.29305c0.696,-0.15874 1.73391,-0.40295 2.29559,-0.53727c0.76927,-0.18316 1.07453,-0.21979 1.19664,-0.1099c0.08547,0.07326 0.41516,0.53727 0.72043,1.02569c0.53727,0.86695 0.54948,0.91579 0.47621,1.57517c-0.09768,0.75706 -0.12211,0.74485 0.90358,0.54948c0.61053,-0.1099 0.68379,-0.09768 1.58738,0.35411c0.52506,0.26863 1.11116,0.62274 1.30653,0.78148c0.19537,0.17095 1.00127,0.61053 1.77054,0.97685c1.30653,0.61053 1.69727,0.86695 1.53854,1.01348c-0.02442,0.02442 -0.70821,-0.24421 -1.5019,-0.59832l-1.45306,-0.65937l-0.03663,0.85474c-0.02442,0.47621 -0.01221,0.91579 0.01221,1.00127c0.03663,0.07326 1.31874,0.67158 2.85728,1.31874c1.53854,0.65937 2.90612,1.2699 3.04044,1.35538c0.59832,0.45179 -0.15874,0.24421 -2.86949,-0.78148c-1.62401,-0.59832 -3.00381,-1.09895 -3.06486,-1.09895c-0.04884,0 -0.43958,0.40295 -0.86695,0.87916c-0.41516,0.48842 -0.83032,0.90358 -0.92801,0.92801c-0.13432,0.03663 -0.15874,0.24421 -0.13432,0.90358l0.03663,0.86695l0.96464,0.58611c0.8059,0.47621 1.39201,0.696 3.41897,1.2699c1.35538,0.37853 2.5398,0.74485 2.63749,0.79369c0.15874,0.09768 0.15874,0.12211 -0.02442,0.18316c-0.17095,0.07326 -4.7255,-0.90358 -5.32382,-1.13559c-0.15874,-0.06105 -0.17095,0.06105 -0.1099,0.78148c0.04884,0.464 0.08547,1.28211 0.08547,1.81938c0,0.53727 0.04884,1.05011 0.1099,1.13559c0.04884,0.09768 0.73264,0.25642 1.6118,0.40295c1.99033,0.30526 2.06359,0.32969 2.06359,0.54948c0,0.17095 -0.09768,0.18316 -0.5739,0.1099c-0.32969,-0.04884 -1.16001,-0.15874 -1.86822,-0.24421c-1.23327,-0.15874 -1.29432,-0.15874 -1.53854,0.07326c-0.35411,0.32969 -0.40295,0.68379 -0.30526,2.1857c0.04884,0.70821 0.07326,1.31874 0.04884,1.36759c-0.02442,0.04884 -0.20758,0.02442 -0.40295,-0.04884c-0.35411,-0.12211 -0.36632,-0.14653 -0.35411,-0.86695c0.01221,-1.48969 0.15874,-2.38107 0.464,-2.69854c0.28084,-0.30526 0.29305,-0.3419 0.20758,-1.86822c-0.03663,-0.85474 -0.1099,-1.99033 -0.15874,-2.50317l-0.07326,-0.95243l-1.6118,-0.92801l-0.07326,-2.39328l0.35411,0.07326c0.30526,0.07326 0.42737,-0.01221 1.17222,-0.78148l0.84253,-0.86695l-0.08547,-0.92801c-0.03663,-0.51285 -0.07326,-1.11116 -0.07326,-1.33096c0,-0.36632 -0.06105,-0.42737 -1.02569,-0.95243c-1.16001,-0.63495 -0.61053,-0.63495 -4.2615,0.04884c-2.22233,0.42737 -2.44212,0.43958 -2.66191,0.17095c-0.31748,-0.39074 -0.90358,-0.54948 -2.95496,-0.81811l-2.11243,-0.28084l-2.1857,0.28084c-1.20885,0.14653 -2.25896,0.26863 -2.34443,0.26863c-0.07326,0.01221 -0.30526,0.15874 -0.51285,0.32969c-0.52506,0.43958 -1.0379,0.47621 -2.28338,0.19537c-0.59832,-0.14653 -1.75833,-0.36632 -2.57644,-0.51285l-1.48969,-0.24421l-1.90485,1.05011l-0.07326,2.78402l0.76927,0.76927c0.47621,0.48842 0.86695,0.76927 1.01348,0.75706c0.56169,-0.03663 0.56169,-0.03663 0.52506,1.19664l-0.03663,1.19664l-0.81811,0.464l-0.8059,0.464l-0.07326,1.24548c-0.21979,3.96844 -0.21979,3.6876 0.03663,3.9196c0.39074,0.35411 0.59832,1.13559 0.65937,2.36886c0.04884,1.08674 0.04884,1.1478 -0.232,1.33096c-0.15874,0.09768 -0.37853,0.14653 -0.48842,0.1099c-0.17095,-0.06105 -0.18316,-0.25642 -0.1099,-1.57517l0.08547,-1.48969l-0.35411,-0.40295l-0.3419,-0.40295l-3.05265,0.43958c-3.3457,0.464 -3.48002,0.47621 -3.48002,0.31748c0,-0.17095 0.19537,-0.21979 3.41897,-0.79369c1.6118,-0.29305 2.96718,-0.54948 2.9916,-0.58611c0.07326,-0.07326 0.24421,-3.76086 0.17095,-3.76086c-0.02442,0.01221 -1.52632,0.39074 -3.3457,0.84253c-1.99033,0.50063 -3.3457,0.79369 -3.41897,0.72043c-0.19537,-0.17095 0.02442,-0.25642 3.16255,-1.19664c3.16255,-0.94022 3.72423,-1.1478 4.61561,-1.73391l0.58611,-0.36632v-0.84253c0,-0.464 -0.04884,-0.84253 -0.12211,-0.84253c-0.1099,0 -0.81811,-0.72043 -1.48969,-1.51411l-0.30526,-0.36632l-0.65937,0.24421c-0.36632,0.13432 -2.05138,0.79369 -3.74865,1.44085c-2.23454,0.86695 -3.13812,1.16001 -3.2236,1.07453c-0.09768,-0.09768 -0.07326,-0.15874 0.09768,-0.21979c0.12211,-0.04884 1.83159,-0.79369 3.77307,-1.64843l3.54107,-1.56296l0.03663,-0.92801c0.02442,-0.50063 -0.01221,-0.91579 -0.06105,-0.91579c-0.04884,0 -1.2699,0.54948 -2.72296,1.20885c-2.89391,1.33096 -3.17476,1.44085 -3.17476,1.23327c0,-0.07326 1.33096,-0.79369 2.96718,-1.58738c1.62401,-0.79369 3.04044,-1.52632 3.12591,-1.62401c0.08547,-0.1099 0.67158,-0.47621 1.30653,-0.81811c1.08674,-0.58611 1.16001,-0.61053 1.66064,-0.48842c1.05011,0.24421 1.09895,0.21979 1.05011,-0.58611c-0.02442,-0.63495 0.01221,-0.79369 0.39074,-1.40422c0.232,-0.37853 0.52506,-0.83032 0.67158,-1.00127l0.24421,-0.31748l2.33222,0.5739l2.32001,0.5739l0.67158,-0.43958c0.61053,-0.41516 1.25769,-0.62274 2.3078,-0.73264c0.232,-0.03663 0.59832,-0.03663 0.79369,0zM23.72494,13.79349c-0.52506,0.04884 -1.06232,0.18316 -1.40422,0.36632c-0.72043,0.37853 -0.47621,0.42737 1.16001,0.19537c0.72043,-0.09768 1.36759,-0.15874 1.44085,-0.12211c0.15874,0.04884 2.72296,0.41516 2.94275,0.41516c0.07326,0 -0.1099,-0.17095 -0.41516,-0.36632c-0.39074,-0.24421 -0.81811,-0.40295 -1.40422,-0.48842c-0.92801,-0.12211 -1.0379,-0.12211 -2.32001,0zM32.49215,14.17202c-0.04884,0 -0.84253,0.18316 -1.75833,0.39074l-1.67285,0.39074l0.72043,1.22106c0.39074,0.67158 0.75706,1.22106 0.8059,1.22106c0.21979,0 1.69727,-0.3419 1.75833,-0.41516c0.04884,-0.03663 0.12211,-0.696 0.15874,-1.45306c0.04884,-0.74485 0.03663,-1.36759 -0.01221,-1.35538zM17.09459,14.28191c-0.17095,0 -0.18316,0.25642 -0.07326,1.66064l0.08547,0.98906l0.86695,0.20758c0.47621,0.1099 0.90358,0.19537 0.94022,0.19537c0.09768,0 1.33096,-2.14907 1.33096,-2.29559c0,-0.06105 -0.67158,-0.24421 -1.5019,-0.42737c-0.81811,-0.18316 -1.56296,-0.32969 -1.64843,-0.32969zM25.34895,15.05118c0.5739,0.13432 0.63495,0.40295 0.07326,0.36632c-0.19537,-0.01221 -1.0379,0.06105 -1.88043,0.15874c-1.40422,0.17095 -1.57517,0.21979 -2.17349,0.62274c-0.35411,0.24421 -0.62274,0.45179 -0.59832,0.47621c0.02442,0.02442 0.78148,-0.06105 1.68506,-0.19537c2.08801,-0.31748 2.23454,-0.31748 4.50571,0.04884c1.0379,0.15874 1.90485,0.28084 1.92927,0.25642c0.01221,-0.01221 -0.19537,-0.18316 -0.464,-0.36632c-0.58611,-0.40295 -0.85474,-0.79369 -0.54948,-0.79369c0.1099,0 0.37853,0.13432 0.58611,0.29305c0.21979,0.15874 0.52506,0.32969 0.68379,0.37853l0.28084,0.08547l-0.28084,-0.37853c-0.32969,-0.45179 -0.21979,-0.41516 -2.35665,-0.8059c-1.70948,-0.30526 -2.40549,-0.37853 -1.44085,-0.14653zM24.88495,18.01836c0.36632,0.02442 2.34443,0.28084 4.39582,0.54948l3.72423,0.50063l0.85474,0.54948c1.39201,0.90358 1.40422,0.91579 1.40422,1.94149c0,0.48842 -0.04884,0.91579 -0.1099,0.95243c-0.17095,0.1099 -0.3419,-0.19537 -0.43958,-0.78148c-0.13432,-0.87916 -0.17095,-0.95243 -0.73264,-1.33096c-0.29305,-0.19537 -0.68379,-0.47621 -0.87916,-0.61053c-0.28084,-0.19537 -0.91579,-0.30526 -3.57771,-0.62274c-1.78275,-0.20758 -3.50444,-0.42737 -3.84634,-0.47621c-0.45179,-0.08547 -1.19664,-0.03663 -2.93054,0.18316c-1.2699,0.17095 -3.05265,0.37853 -3.95623,0.47621c-1.79496,0.19537 -2.46654,0.42737 -3.3457,1.18443c-0.41516,0.35411 -0.47621,0.48842 -0.53727,1.09895c-0.07326,0.72043 -0.30526,1.09895 -0.53727,0.86695c-0.06105,-0.06105 -0.1099,-0.54948 -0.08547,-1.07453l0.03663,-0.95243l1.09895,-0.74485c1.08674,-0.74485 1.11116,-0.74485 2.38107,-0.90358c0.70821,-0.08547 2.44212,-0.31748 3.84634,-0.51285c1.47748,-0.20758 2.84507,-0.32969 3.23581,-0.29305zM24.39653,19.54468c0.1099,0 0.84253,0.07326 1.64843,0.17095c0.8059,0.09768 2.55202,0.29305 3.88297,0.42737c1.33096,0.13432 2.51538,0.29305 2.62528,0.35411c0.3419,0.19537 1.06232,0.98906 0.87916,0.98906c-0.08547,0 -0.32969,-0.12211 -0.53727,-0.28084c-0.54948,-0.41516 -0.62274,-0.42737 -2.79623,-0.63495c-1.08674,-0.09768 -2.66191,-0.25642 -3.50444,-0.3419c-1.48969,-0.17095 -1.67285,-0.15874 -5.44593,0.20758c-3.87076,0.39074 -3.90739,0.40295 -4.44466,0.76927c-1.29432,0.87916 -1.48969,0.76927 -0.36632,-0.20758l0.73264,-0.63495l2.58865,-0.28084c1.42864,-0.15874 3.04044,-0.3419 3.57771,-0.40295c0.53727,-0.06105 1.06232,-0.12211 1.16001,-0.13432zM29.59824,22.51186l3.56549,0.39074l0.70821,0.53727c0.39074,0.30526 0.91579,0.74485 1.17222,0.98906l0.464,0.43958v1.17222c0,0.68379 -0.04884,1.20885 -0.12211,1.24548c-0.07326,0.04884 -0.83032,-0.39074 -1.68506,-0.95243l-1.55075,-1.0379l-3.23581,-0.15874c-3.77307,-0.17095 -4.04171,-0.17095 -7.26531,0c-4.66445,0.25642 -4.10276,0.13432 -5.81224,1.31874c-0.81811,0.56169 -1.55075,1.00127 -1.62401,0.97685c-0.13432,-0.04884 -0.13432,-0.26863 -0.09768,-1.99033l0.02442,-0.75706l1.13559,-0.91579l1.1478,-0.91579l2.85728,-0.31748c1.57517,-0.17095 3.29686,-0.36632 3.83413,-0.42737c1.19664,-0.13432 1.97812,-0.08547 6.48383,0.40295zM25.19022,22.65838c-0.19537,-0.02442 -0.63495,0 -0.97685,0.04884c-0.32969,0.04884 -2.17349,0.25642 -4.09055,0.43958l-3.48002,0.35411l-1.06232,0.95243l-1.07453,0.96464v0.61053c0,0.58611 0.01221,0.61053 0.232,0.45179c0.13432,-0.09768 0.72043,-0.52506 1.30653,-0.95243l1.06232,-0.78148l3.80971,-0.3419c2.08801,-0.18316 3.94402,-0.30526 4.10276,-0.28084c0.15874,0.02442 1.63622,0.15874 3.28465,0.29305c4.57897,0.37853 4.09055,0.25642 5.49477,1.29432c0.67158,0.50063 1.25769,0.90358 1.28211,0.90358c0.03663,0 0.06105,-0.26863 0.06105,-0.58611c0,-0.62274 -0.07326,-0.72043 -1.70948,-2.1857l-0.42737,-0.37853l-3.72423,-0.37853c-2.05138,-0.20758 -3.88297,-0.40295 -4.09055,-0.42737zM28.79234,27.40831l3.96844,0.31748l2.80844,1.51411v1.19664c0.01221,0.65937 -0.02442,1.22106 -0.06105,1.24548c-0.03663,0.02442 -0.89137,-0.42737 -1.88043,-1.00127l-1.80717,-1.05011l-2.21012,-0.17095c-2.96718,-0.232 -5.56803,-0.24421 -8.08342,-0.06105c-3.69981,0.29305 -3.51665,0.24421 -5.43372,1.35538c-0.92801,0.54948 -1.74612,0.98906 -1.80717,0.98906c-0.07326,0 -0.15874,-0.08547 -0.19537,-0.19537c-0.09768,-0.24421 -0.09768,-1.92927 0,-2.17349c0.03663,-0.1099 0.70821,-0.52506 1.47748,-0.94022l1.41643,-0.75706l3.24802,-0.26863c4.22487,-0.35411 3.95623,-0.35411 8.55963,0zM24.70179,27.60368c-0.06105,0.01221 -1.63622,0.14653 -3.48002,0.29305l-3.35791,0.26863l-1.55075,0.72043l-1.56296,0.70821v0.64716c0,0.35411 0.02442,0.64716 0.06105,0.64716c0.02442,0 0.70821,-0.37853 1.5019,-0.84253l1.45306,-0.85474l3.2236,-0.30526c1.77054,-0.18316 3.39455,-0.32969 3.58992,-0.3419c0.42737,-0.01221 6.66699,0.59832 7.20425,0.70821c0.20758,0.04884 1.01348,0.464 1.80717,0.91579l1.44085,0.84253l-0.03663,-0.74485l-0.03663,-0.73264l-1.58738,-0.72043l-1.58738,-0.70821l-3.48002,-0.25642c-1.91706,-0.14653 -3.52886,-0.25642 -3.60213,-0.24421z" fill="#ffffff" />
        <path d="M2,24c0,-12.15026 9.84974,-22 22,-22c12.15026,0 22,9.84974 22,22c0,12.15026 -9.84974,22 -22,22c-12.15026,0 -22,-9.84974 -22,-22z" id="base 1 1 1" fill="none" stroke-width="1" />
        <g fill="#000000" stroke-width="1">
            <g />
        </g>
        <rect x="2" y="2" width="44" height="22" fill="none" stroke-width="1" />
        <path d="M2,24v-22h44v22z" fill="none" stroke-width="1" />
        <path d="M2,24v-22h44v22z" fill="none" stroke-width="1" />
        <path d="M2,24v-22h44v22z" fill="none" stroke-width="1" />
        <path d="M2,24v-22h44v22z" fill="none" stroke-width="1" />
    </g>
</svg>
