<?xml version="1.0" encoding="UTF-8" standalone="no"?>
<!DOCTYPE svg PUBLIC "-//W3C//DTD SVG 20010904//EN"
              "http://www.w3.org/TR/2001/REC-SVG-20010904/DTD/svg10.dtd">

<svg xmlns="http://www.w3.org/2000/svg"
     width="144.51mm" height="144.51mm"
     viewBox="0 0 512 512">
  <path id="Selection"
        fill="none" stroke="black" stroke-width="1"
        d="M 0.00,0.00
           C 0.00,0.00 0.00,512.00 0.00,512.00
             0.00,512.00 512.00,512.00 512.00,512.00
             512.00,512.00 512.00,0.00 512.00,0.00
             512.00,0.00 0.00,0.00 0.00,0.00 Z
           M 203.00,88.29
           C 216.91,86.97 228.30,91.90 240.00,98.86
             243.27,100.81 253.32,109.03 256.00,109.03
             258.51,109.03 269.60,100.26 273.00,98.28
             291.02,87.83 314.32,80.88 329.62,100.00
             336.83,109.01 339.45,125.68 338.96,137.00
             338.79,141.05 336.21,153.77 338.03,156.59
             339.43,158.75 351.72,163.53 355.00,165.31
             370.86,173.90 386.49,187.18 384.91,207.00
             383.56,223.78 367.70,235.84 354.00,243.11
             350.49,244.97 339.77,248.56 338.04,251.39
             336.39,254.07 338.89,267.94 338.99,272.00
             339.47,293.34 331.21,318.94 306.00,319.96
             299.16,320.24 292.34,318.36 286.00,315.94
             279.17,313.32 271.98,309.17 266.00,304.96
             263.61,303.28 258.75,298.87 256.00,298.87
             253.39,298.87 243.99,306.41 241.00,308.31
             232.35,313.81 219.35,319.56 209.00,319.96
             182.82,320.99 173.52,297.12 173.01,275.00
             173.01,275.00 174.07,259.00 174.07,259.00
             174.40,256.60 175.30,253.58 174.07,251.39
             172.25,248.59 160.62,244.58 157.00,242.56
             140.38,233.31 123.61,219.20 127.46,198.00
             130.21,182.87 144.28,172.20 157.00,165.31
             160.24,163.55 172.62,158.73 173.96,156.59
             175.60,153.99 173.11,140.00 173.01,136.00
             172.51,114.67 179.13,92.31 203.00,88.29 Z
           M 190.00,153.00
           C 190.00,153.00 211.00,148.75 211.00,148.75
             211.00,148.75 222.96,146.07 222.96,146.07
             222.96,146.07 231.42,137.00 231.42,137.00
             231.42,137.00 245.00,122.00 245.00,122.00
             242.03,118.44 239.79,116.92 236.00,114.34
             225.22,107.01 205.17,95.98 194.39,109.04
             185.89,119.34 187.79,140.66 190.00,153.00 Z
           M 267.00,121.00
           C 267.00,121.00 279.75,136.00 279.75,136.00
             279.75,136.00 289.04,146.07 289.04,146.07
             289.04,146.07 301.00,148.75 301.00,148.75
             301.00,148.75 322.00,153.00 322.00,153.00
             324.84,137.16 327.76,101.66 303.00,103.09
             290.27,103.83 276.67,113.28 267.00,121.00 Z
           M 244.00,145.00
           C 244.00,145.00 268.00,145.00 268.00,145.00
             265.93,142.02 259.75,133.20 256.00,133.20
             252.25,133.20 246.07,142.02 244.00,145.00 Z
           M 242.00,160.50
           C 239.35,160.80 233.21,160.88 231.38,162.02
             229.39,163.26 226.09,168.82 224.69,171.00
             224.69,171.00 212.14,193.00 212.14,193.00
             210.48,195.99 207.38,200.56 207.43,204.00
             207.48,207.04 210.77,212.11 212.24,215.00
             212.24,215.00 224.19,236.00 224.19,236.00
             226.08,239.05 228.95,244.27 232.09,245.98
             233.79,246.90 248.26,247.96 251.00,248.00
             251.00,248.00 271.00,247.09 271.00,247.09
             273.82,246.89 277.40,247.34 279.91,245.98
             283.49,244.03 289.18,233.86 291.58,230.00
             291.58,230.00 300.26,214.00 300.26,214.00
             301.48,211.64 304.13,207.42 304.48,205.00
             305.06,201.00 301.73,196.37 299.86,193.00
             299.86,193.00 287.31,171.00 287.31,171.00
             285.91,168.82 282.61,163.26 280.62,162.02
             278.67,160.80 273.59,160.92 271.00,160.50
             264.48,159.72 248.51,159.63 242.00,160.50 Z
           M 194.00,167.00
           C 194.31,173.26 196.49,179.29 199.00,185.00
             199.00,185.00 211.00,164.00 211.00,164.00
             211.00,164.00 194.00,167.00 194.00,167.00 Z
           M 301.00,164.00
           C 301.00,164.00 313.00,185.00 313.00,185.00
             315.51,179.29 317.69,173.26 318.00,167.00
             318.00,167.00 301.00,164.00 301.00,164.00 Z
           M 178.00,172.00
           C 166.04,178.21 149.35,183.57 143.53,197.00
             137.02,212.02 152.54,223.13 164.00,229.22
             166.68,230.64 174.04,234.60 176.86,234.36
             180.69,234.03 182.83,223.34 184.05,220.00
             185.39,216.35 189.58,207.27 189.58,204.00
             189.58,201.16 187.12,195.87 186.05,193.00
             184.23,188.13 180.36,175.32 178.00,172.00 Z
           M 333.00,172.00
           C 333.00,172.00 325.95,193.00 325.95,193.00
             324.88,195.92 322.42,201.12 322.42,204.00
             322.42,207.27 326.61,216.35 327.95,220.00
             329.09,223.11 331.21,233.28 334.28,234.22
             337.17,235.11 344.29,231.14 347.00,229.74
             357.80,224.16 372.84,214.23 369.47,200.00
             366.08,185.68 345.41,176.96 333.00,172.00 Z
           M 256.00,187.58
           C 261.12,187.95 265.11,189.02 268.61,193.10
             276.05,201.79 272.69,219.97 256.00,219.97
             239.31,219.97 235.95,201.79 243.39,193.10
             246.89,189.02 250.88,187.95 256.00,187.58 Z
           M 199.00,223.00
           C 197.62,226.14 193.10,236.50 195.06,239.44
             196.79,242.02 207.76,243.56 211.00,244.00
             211.00,244.00 199.00,223.00 199.00,223.00 Z
           M 312.00,223.00
           C 312.00,223.00 301.00,244.00 301.00,244.00
             304.06,243.59 314.39,241.96 316.39,240.07
             319.68,236.96 314.42,225.81 312.00,223.00 Z
           M 190.00,255.00
           C 187.17,270.79 184.25,306.42 209.00,304.91
             222.58,304.08 234.53,294.69 245.00,287.00
             245.00,287.00 230.61,270.00 230.61,270.00
             230.61,270.00 222.70,261.40 222.70,261.40
             222.70,261.40 210.00,258.92 210.00,258.92
             210.00,258.92 190.00,255.00 190.00,255.00 Z
           M 267.00,287.00
           C 277.47,294.69 289.42,304.08 303.00,304.91
             327.75,306.42 324.83,270.79 322.00,255.00
             322.00,255.00 302.00,258.92 302.00,258.92
             302.00,258.92 289.30,261.40 289.30,261.40
             289.30,261.40 281.39,270.00 281.39,270.00
             281.39,270.00 267.00,287.00 267.00,287.00 Z
           M 244.00,262.00
           C 245.55,265.31 252.08,274.80 256.00,274.80
             259.92,274.80 266.45,265.31 268.00,262.00
             260.00,263.43 252.00,263.43 244.00,262.00 Z
           M 169.00,439.00
           C 169.00,439.00 176.42,453.00 176.42,453.00
             178.34,456.39 184.27,466.52 184.22,469.99
             184.15,475.27 176.93,479.41 172.53,476.16
             170.34,474.54 168.51,470.43 167.22,468.00
             167.22,468.00 158.75,452.00 158.75,452.00
             157.38,449.25 155.45,444.59 152.79,443.02
             150.58,441.72 146.56,442.00 144.00,442.00
             144.00,442.00 144.00,466.00 144.00,466.00
             143.99,468.05 144.07,471.01 143.26,472.89
             141.27,477.52 132.96,478.43 129.99,474.35
             128.75,472.64 129.00,469.07 129.00,467.00
             129.00,467.00 129.00,402.00 129.00,402.00
             129.01,399.46 128.68,395.52 130.60,393.60
             132.23,391.96 134.86,392.04 137.00,392.00
             137.00,392.00 159.00,392.00 159.00,392.00
             166.87,392.10 175.48,394.34 180.35,401.04
             186.27,409.18 187.75,433.53 169.00,439.00 Z
           M 361.02,398.40
           C 371.87,397.18 369.98,404.07 370.00,412.00
             370.01,414.91 369.55,419.14 372.31,420.98
             376.55,423.80 388.18,418.73 387.75,427.99
             387.37,436.04 376.52,431.22 372.31,434.02
             368.91,436.29 369.99,446.15 370.00,450.00
             370.01,454.44 369.66,460.41 374.13,462.98
             378.01,465.21 385.96,462.07 387.53,469.04
             388.76,474.50 384.72,476.78 380.00,476.98
             373.49,477.26 365.19,476.51 360.34,471.66
             355.97,467.30 356.01,462.71 356.00,457.00
             356.00,457.00 356.00,408.00 356.00,408.00
             356.01,402.45 355.24,400.39 361.02,398.40 Z
           M 144.00,405.00
           C 144.00,405.00 144.00,430.00 144.00,430.00
             149.43,430.00 160.45,430.84 164.79,427.91
             170.94,423.77 170.50,410.12 163.90,406.45
             159.93,404.25 148.90,405.00 144.00,405.00 Z
           M 206.00,453.00
           C 206.39,464.09 215.12,467.98 225.00,465.26
             229.08,464.14 236.14,460.03 238.38,466.11
             239.91,470.26 236.31,473.59 233.00,475.32
             226.38,478.77 215.03,478.71 208.00,476.56
             197.24,473.26 191.14,465.13 191.00,454.00
             190.95,449.84 190.68,441.71 191.80,438.00
             195.09,427.08 206.97,420.41 218.00,421.09
             228.78,421.76 239.42,429.65 239.96,441.00
             240.12,444.29 240.24,448.10 237.69,450.57
             235.25,452.93 232.16,452.95 229.00,453.00
             229.00,453.00 206.00,453.00 206.00,453.00 Z
           M 280.00,469.00
           C 273.04,473.83 269.27,478.55 260.00,477.90
             243.75,476.77 244.68,457.19 251.13,451.27
             258.53,444.48 270.17,447.15 279.00,445.00
             276.70,437.40 274.10,432.11 265.00,433.18
             258.85,433.91 254.22,438.61 251.18,433.76
             247.14,427.31 255.00,423.47 260.00,422.24
             269.06,420.00 281.01,420.78 287.67,428.10
             290.03,430.70 291.51,433.60 292.32,437.00
             293.43,441.66 293.11,462.95 293.00,469.00
             292.92,473.04 292.73,476.01 287.98,476.76
             281.55,477.77 280.19,474.43 280.00,469.00 Z
           M 324.00,421.29
           C 329.65,420.77 338.14,421.66 342.89,424.99
             346.63,427.61 347.71,432.32 343.72,435.39
             340.00,438.25 335.50,434.89 331.00,434.36
             320.08,433.08 317.99,441.42 318.21,450.00
             318.00,451.97 317.92,455.16 318.21,457.00
             320.40,464.11 327.60,465.95 334.00,464.27
             337.73,463.21 342.22,460.54 345.40,464.27
             350.37,470.22 342.81,475.03 338.00,476.64
             328.92,479.67 315.14,478.41 308.40,470.82
             300.96,462.12 300.78,437.82 308.40,429.04
             312.66,423.90 317.63,422.36 324.00,421.29 Z
           M 206.00,444.92
           C 206.00,444.92 218.00,444.92 218.00,444.92
             218.00,444.92 221.96,444.92 221.96,444.92
             226.78,443.84 227.16,439.78 224.30,436.39
             220.16,431.48 209.64,431.90 206.85,438.10
             205.91,440.21 206.03,442.74 206.00,444.92 Z
           M 279.00,454.00
           C 270.79,451.69 258.22,455.37 262.19,462.87
             264.89,467.96 275.86,468.87 279.00,454.00 Z" />
</svg>
